<?xml version="1.0" ?><svg height="24px" version="1.1" viewBox="0 0 24 24" width="24px" xmlns="http://www.w3.org/2000/svg" xmlns:sketch="http://www.bohemiancoding.com/sketch/ns" xmlns:xlink="http://www.w3.org/1999/xlink"><title/><desc/><defs/><g fill="none" fill-rule="evenodd" id="miu" stroke="none" stroke-width="1"><g id="Artboard-1" transform="translate(-683.000000, -515.000000)"><g id="slice" transform="translate(215.000000, 119.000000)"/><path d="M692.5,524.441381 L694,523.012014 L694,516 L695,517.5 L695,523.5 L692.5,526 C692.5,526 692.75,528.871103 692.75,531.5 C692.75,534.128897 692.5,538 692.5,538 L691.5,538 C691.5,538 691.25,534.148672 691.25,531.5 C691.25,528.851328 691.5,526 691.5,526 L689,523.5 L689,517.5 L690.002367,516 L690.002367,523.012014 L691.5,524.440817 L691.5,516 L692.5,516 L692.5,524.441381 Z M702,523.413795 C702,522.416442 701.5,515.999998 699.000002,516 C696.500004,516.000002 696,522.416442 696,523.413795 C696,525.408501 698.5,526.031765 698.5,526.031765 C698.5,526.031765 698.25,529.023824 698.25,531.517206 C698.25,534.010588 698.5,538 698.5,538 L699.5,538 C699.5,538 699.75,534.121612 699.75,531.517206 C699.75,528.9128 699.5,526.031765 699.5,526.031765 C699.5,526.031765 702,525.408501 702,523.413795 Z" fill="#000000" id="food-fork-spoon-restaurant-eating-glyph"/></g></g></svg>